<?xml version="1.0"?>
<svg width="1080" height="1080" xmlns="http://www.w3.org/2000/svg" xmlns:svg="http://www.w3.org/2000/svg" preserveAspectRatio="xMidYMid meet" version="1.0">
 <g class="layer">
  <title>Layer 1</title>
  <circle cx="539.17" cy="540" fill="#ffd4aa" id="svg_33" r="536.05" stroke="#000000" transform="matrix(1 0 0 1 0 0)"/>
  <g fill="#000000" id="svg_1" transform="matrix(0.130201 0 0 -0.12036 -43.8807 -183.347)">
   <path d="m5083.3,-1792.19c-224,-32 -350,-88 -473,-209c-77,-76 -122,-147 -150,-235c-19,-62 -25,-70 -52,-76c-58,-12 -151,-64 -229,-128c-84,-68 -143,-96 -208,-96c-25,0 -41,-5 -44,-15c-20,-50 94,-62 185,-20c30,14 84,48 121,75c95,71 220,129 220,103c0,-5 -21,-29 -46,-53c-25,-25 -57,-64 -70,-86c-14,-23 -44,-54 -67,-69c-23,-16 -83,-68 -132,-116c-50,-48 -107,-95 -127,-104c-54,-22 -140,-19 -189,6c-42,21 -69,20 -69,-4c0,-35 85,-82 171,-93c51,-7 59,-16 35,-43c-8,-9 -30,-47 -49,-86c-70,-141 -73,-225 -6,-225c29,0 31,-2 25,-27c-4,-16 -9,-68 -12,-118c-5,-72 -3,-94 9,-110c13,-16 19,-18 34,-9c14,9 19,29 24,100c3,49 11,107 19,129c17,53 49,115 58,115c5,0 8,-45 8,-99c-1,-85 2,-103 20,-128c12,-16 24,-52 27,-85c4,-32 16,-79 26,-106c24,-61 13,-88 -44,-108c-97,-32 -141,-134 -133,-309c8,-160 64,-315 157,-433c23,-28 41,-56 41,-62c0,-5 -20,-37 -45,-71c-63,-85 -88,-172 -83,-287c6,-150 63,-235 168,-249c42,-6 127,27 137,53c11,30 43,11 109,-67c44,-51 72,-94 77,-117c14,-59 43,-151 76,-241c35,-96 36,-101 18,-101c-7,0 -44,-15 -82,-34c-219,-106 -406,-324 -562,-655c-61,-130 -67,-174 -22,-179c44,-5 75,32 148,181c141,289 281,454 457,542c87,43 111,45 120,8c6,-22 2,-30 -17,-42c-13,-8 -45,-36 -70,-61c-37,-38 -49,-60 -64,-113c-17,-64 -19,-67 -54,-73c-77,-13 -138,-80 -168,-184c-18,-62 -53,-128 -84,-156c-27,-24 -48,-65 -42,-81c3,-7 16,-13 29,-13c25,0 47,18 75,60c9,14 20,22 23,19c4,-3 11,-55 16,-115c6,-71 15,-113 24,-123c26,-26 30,12 18,168c-19,236 -14,277 41,337c25,28 43,36 86,43c29,5 57,14 61,21c4,7 13,38 19,69c6,31 21,73 34,94c26,42 73,78 93,70c7,-2 22,-33 34,-67c20,-62 20,-63 1,-107c-41,-92 -50,-199 -17,-199c9,0 15,25 20,77c7,93 20,111 41,60c19,-46 19,-61 -1,-99c-13,-25 -15,-47 -9,-110l6,-78l-38,0c-42,0 -80,22 -186,104c-57,45 -90,56 -102,37c-3,-6 18,-28 47,-50c29,-22 67,-51 83,-66c28,-24 29,-26 11,-38c-10,-7 -54,-35 -99,-63c-44,-28 -83,-56 -85,-62c-9,-28 41,-8 133,54c77,50 105,64 123,59c21,-5 23,-10 17,-33c-7,-27 -8,-73 -3,-122c2,-15 -2,-24 -9,-23c-62,12 -151,14 -158,3c-12,-19 10,-27 96,-33c86,-6 133,-26 127,-55c-2,-13 -18,-19 -63,-23c-33,-4 -76,-14 -95,-22c-67,-29 -176,-115 -262,-205c-99,-105 -157,-182 -220,-297c-45,-81 -56,-89 -99,-71c-24,11 -63,-26 -159,-153c-88,-118 -140,-171 -165,-171c-8,0 -27,11 -42,24c-24,21 -28,31 -27,78c0,43 14,85 71,219c109,254 163,441 163,564c0,120 -34,165 -125,165c-80,0 -144,-38 -260,-154c-90,-91 -176,-201 -245,-315c-13,-23 -28,-41 -32,-41c-14,0 -9,37 32,222l40,180l53,67c28,36 93,111 143,166c105,116 128,149 120,170c-17,46 -72,2 -218,-173c-36,-42 -65,-69 -70,-64c-5,5 -2,37 8,76c18,73 63,141 298,455c149,200 201,278 252,384c93,192 79,337 -33,337c-122,0 -350,-193 -473,-400c-113,-189 -223,-503 -324,-920c-26,-107 -51,-211 -56,-230c-6,-19 -37,-66 -71,-105c-130,-150 -191,-215 -200,-215c-5,0 -9,23 -9,50c0,76 -37,227 -76,307c-44,93 -118,172 -258,276c-151,114 -230,200 -252,274c-22,75 -15,243 14,323c41,118 140,281 224,371c146,156 320,237 379,178c32,-32 19,-79 -54,-188c-77,-116 -91,-150 -83,-195c16,-82 107,-111 210,-66c122,52 205,175 333,495c89,222 94,290 27,365c-43,48 -103,70 -210,77c-139,10 -350,-35 -489,-104c-346,-172 -661,-600 -745,-1012c-60,-294 14,-504 237,-677c267,-206 321,-289 331,-505c10,-221 -70,-459 -236,-709c-169,-254 -337,-399 -545,-471c-143,-50 -255,-31 -299,51c-44,81 13,229 139,360c92,97 188,164 336,235c63,31 118,62 121,70c3,9 19,15 41,15c23,0 38,6 42,15c8,24 -4,30 -33,16c-14,-6 -43,-14 -65,-16c-71,-9 -252,-93 -364,-168c-134,-91 -257,-239 -321,-387c-24,-57 -28,-78 -29,-167c0,-97 1,-103 30,-145c38,-54 113,-87 196,-88c109,0 378,83 509,157c242,138 483,370 644,620c55,85 172,319 210,419c21,55 51,102 130,200c108,135 142,171 152,161c3,-3 -1,-52 -10,-109c-35,-223 -47,-351 -53,-538c-6,-222 0,-264 48,-304c44,-37 84,-34 125,9c51,55 65,126 82,426c8,134 12,152 41,214c79,171 274,460 336,501c33,21 55,12 55,-23c0,-31 -39,-181 -118,-453c-89,-306 -132,-502 -132,-598c0,-105 67,-175 146,-153c41,11 98,51 135,95c14,17 104,135 199,261c184,246 226,295 248,295c17,0 14,-15 -26,-131c-36,-103 -62,-221 -62,-283c0,-92 47,-156 113,-156c42,0 113,56 207,164c51,58 97,106 102,106c6,0 8,-14 4,-32c-27,-154 -30,-190 -18,-246c18,-90 87,-137 152,-102c10,6 56,62 101,125c45,63 110,149 146,192c98,119 363,383 384,383c17,0 18,-6 13,-72c-12,-136 33,-484 70,-557c18,-34 62,-61 99,-61c103,0 330,322 491,697c30,71 54,113 63,113c16,0 14,-36 -12,-185c-22,-125 -36,-333 -26,-395c7,-42 16,-60 40,-82c36,-33 55,-35 98,-10c49,27 98,94 230,314c334,558 484,846 569,1092c29,84 30,102 5,116c-34,17 -66,-24 -110,-140c-121,-322 -308,-678 -551,-1047c-47,-72 -63,-70 -55,4c21,182 88,586 121,731c22,96 21,223 -3,269c-22,43 -88,83 -139,83c-52,0 -133,-49 -170,-103c-47,-69 -54,-102 -54,-282c0,-186 -17,-287 -75,-443c-84,-228 -266,-514 -303,-477c-11,11 -14,426 -4,556c8,97 14,125 30,142c37,41 46,70 44,147c-1,71 1,78 40,145c206,347 411,568 703,762c117,78 187,113 316,157c111,38 142,42 199,26c19,-5 85,-14 145,-20c104,-10 111,-13 133,-41c24,-29 64,-39 78,-18c4,7 27,8 65,4c72,-8 79,7 15,34c-38,17 -45,25 -54,63c-13,52 -58,98 -127,130c-44,20 -65,23 -180,23c-115,-1 -140,-4 -214,-29l-83,-28l-72,36c-67,34 -185,66 -244,66c-58,1 -104,40 -153,130c-44,83 -62,101 -155,156c-18,11 -19,25 -18,203c1,189 2,191 30,248c28,55 31,58 69,60c22,0 60,8 85,17c74,26 74,26 67,-59c-11,-120 -25,-163 -70,-207l-39,-38l29,0c69,0 111,83 127,251l11,117l60,45c213,159 346,421 314,619c-12,76 -38,126 -85,168c-36,31 -37,34 -25,64c25,60 51,139 51,155c0,9 19,39 41,66c54,65 113,184 141,282c29,103 31,276 4,378c-47,177 -188,395 -303,466c-72,45 -21,52 93,14c154,-52 261,-146 330,-289c53,-110 69,-197 68,-376c0,-175 -15,-249 -80,-393c-41,-89 -38,-112 12,-112c24,0 32,8 56,55c121,239 142,524 57,777c-79,240 -269,403 -499,429c-72,8 -80,28 -17,44c77,19 92,25 95,43c5,26 -16,47 -49,47c-42,0 -132,-36 -196,-80c-32,-21 -61,-36 -65,-34c-5,3 -8,22 -8,43c0,114 -101,253 -160,221c-27,-15 -25,-42 6,-71c26,-24 64,-89 64,-109c0,-30 -78,5 -87,39c-24,101 -148,241 -271,305c-157,81 -313,117 -506,115c-66,-1 -132,-3 -146,-5zm355,-98c91,-20 165,-46 244,-85c66,-34 161,-100 161,-112c0,-4 -27,3 -60,17c-97,39 -185,55 -289,54c-70,-2 -117,4 -175,19c-280,74 -532,-53 -615,-311c-7,-21 -15,-38 -18,-38c-14,0 -149,44 -157,51c-5,4 7,41 28,85c51,108 152,207 268,262c74,36 180,65 278,76c67,8 266,-3 335,-18zm290,-486c4,-6 -10,-17 -29,-25c-50,-21 -49,-56 4,-114c22,-24 40,-47 40,-50c0,-4 19,-18 43,-31c30,-18 58,-24 99,-25c32,0 58,-2 58,-5c0,-2 -14,-19 -32,-37c-29,-30 -37,-33 -92,-33c-97,0 -162,26 -228,91c-46,46 -60,67 -77,123c-32,102 -31,104 35,105c31,0 59,3 62,6c10,9 111,5 117,-5zm608,-466c3,-4 2,-15 -4,-25c-8,-15 -2,-33 27,-85c76,-136 77,-199 1,-281c-38,-41 -94,-80 -103,-71c-2,2 -8,37 -15,78c-13,85 -48,177 -90,234c-28,38 -30,56 -6,56c22,0 132,57 151,79c20,22 28,25 39,15zm-1220,-76c13,-21 18,-22 47,-11c42,16 54,10 89,-45c60,-94 156,-171 328,-263c101,-55 132,-78 213,-159c74,-73 104,-112 133,-170c31,-64 63,-186 51,-199c-10,-10 -193,34 -224,54c-24,16 -55,24 -101,28c-55,4 -170,26 -229,45c-9,2 1,10 25,19c84,31 143,43 218,43c89,0 95,8 46,65c-38,43 -86,57 -199,57c-142,1 -256,-47 -296,-124c-8,-16 -12,-38 -9,-48c5,-15 2,-20 -13,-20c-35,0 -106,-30 -133,-56c-23,-22 -30,-24 -48,-15c-27,15 -133,16 -158,2c-16,-8 -24,-7 -37,8c-9,9 -16,25 -16,34c0,74 -114,137 -248,137c-81,0 -128,-12 -176,-45l-37,-25l7,37c25,139 115,293 250,430c102,103 193,166 271,189l55,16l42,-41c46,-45 100,-71 146,-71c33,0 43,27 13,36c-57,18 -83,35 -83,56c0,24 26,58 45,58c7,0 19,-10 28,-22zm301,-24c5,-13 3,-14 -6,-6c-7,5 -26,12 -43,15c-28,4 -28,4 6,6c26,1 39,-4 43,-15zm426,-163c0,-5 3,-17 7,-27c6,-15 4,-15 -14,2c-20,19 -21,34 -2,34c5,0 9,-4 9,-9zm47,-323c-3,-8 -6,-5 -6,6c-1,11 2,17 5,13c3,-3 4,-12 1,-19zm-1245,-264c33,-10 73,-30 95,-49l38,-33l0,-133c0,-127 -1,-137 -28,-186c-47,-91 -137,-130 -270,-120c-158,12 -196,53 -197,212c0,69 3,86 12,77c7,-7 21,-12 31,-12c17,0 19,5 13,33c-4,17 -10,55 -13,82c-3,28 -10,58 -15,67c-10,21 15,47 65,65c48,17 201,16 269,-3zm826,-19c75,-18 128,-44 162,-79c21,-24 25,-38 28,-120c10,-217 -76,-307 -293,-307c-176,0 -257,65 -280,224c-7,47 -2,55 25,37c9,-5 19,-5 27,2c10,8 7,20 -12,59c-14,27 -29,49 -33,49c-4,0 -13,4 -20,9c-19,12 8,74 42,96c68,45 232,59 354,30zm-1240,-7c-3,-7 -11,-13 -18,-13c-7,0 -15,6 -17,13c-3,7 4,12 17,12c13,0 20,-5 18,-12zm1465,-33c-4,-15 -36,-12 -41,3c-3,9 3,13 19,10c13,-1 23,-7 22,-13zm-1563,-24c0,-5 9,-13 20,-16c23,-7 27,-25 6,-25c-21,0 -62,-58 -75,-105c-6,-22 -11,-69 -12,-105c-1,-46 -3,-58 -9,-40c-4,14 -5,37 -2,53c3,20 0,27 -12,27c-38,0 -5,163 41,199c28,23 43,27 43,12zm854,-6c20,-14 24,-26 30,-110c12,-170 63,-283 149,-324c128,-62 350,-48 455,29c52,37 90,116 106,217c11,72 14,78 34,75l22,-3l-25,37c-34,49 -33,67 3,60c15,-3 66,-13 113,-22c48,-9 91,-19 97,-23c17,-10 -2,-113 -44,-249c-36,-114 -38,-162 -9,-162c7,0 17,-4 20,-10c4,-6 -3,-6 -21,0l-27,11l7,-48c7,-58 49,-104 72,-81c11,10 11,22 4,48c-17,59 -12,79 26,112c20,17 54,67 76,112c61,121 92,161 152,195c75,43 129,49 186,19c150,-77 120,-351 -63,-583c-53,-69 -135,-145 -155,-145c-6,0 -14,33 -19,73c-8,68 -9,72 -33,72c-25,0 -25,0 -25,-98c0,-105 -4,-113 -55,-117c-56,-5 -73,1 -106,37c-31,34 -34,42 -28,78c4,31 2,44 -10,54c-20,17 -32,8 -47,-37c-44,-136 -194,-367 -324,-498c-102,-103 -182,-160 -299,-214c-211,-99 -400,-91 -560,24c-87,62 -226,212 -301,326c-106,162 -145,286 -144,470c0,105 17,241 32,256c3,4 25,-3 49,-15c86,-41 251,-47 341,-12c36,14 34,14 40,-9c11,-42 33,-17 80,88c47,107 97,252 97,284c0,10 -9,22 -20,28c-11,6 -20,17 -20,25c0,40 98,60 144,30zm-782,-305c13,-39 13,-50 0,-80c-8,-19 -22,-79 -31,-133l-17,-98l-42,81c-23,44 -42,86 -41,92c0,7 7,-2 15,-20c9,-20 19,-30 26,-26c6,4 8,3 5,-3c-4,-6 2,-22 13,-34c11,-13 20,-22 20,-19c16,70 23,115 23,147c0,18 4,30 8,27c5,-3 9,5 9,16c0,14 -8,24 -20,27c-11,3 -23,16 -26,30c-9,33 1,122 16,158c13,29 14,28 21,-45c4,-41 14,-95 21,-120zm-83,-84c15,-18 15,-18 -6,-7c-13,6 -23,18 -23,26c0,8 -5,15 -11,15c-5,0 -7,5 -3,11c4,8 10,5 17,-7c5,-11 17,-28 26,-38zm82,-517c21,-82 60,-177 99,-240c36,-59 37,-79 8,-106c-61,-55 -120,-58 -171,-10c-46,43 -61,98 -55,212c5,90 25,152 66,198c24,27 35,16 53,-54zm1612,-486c6,-139 13,-190 42,-279c5,-17 -12,-39 -92,-121c-202,-204 -451,-378 -766,-533c-127,-62 -145,-83 -128,-139c16,-54 14,-61 -14,-61c-19,0 -25,6 -26,23c-1,12 -3,36 -5,54c-2,24 3,36 22,48c13,8 24,25 24,37c0,12 -19,82 -42,155l-41,133l22,18c13,9 37,29 55,43c17,14 60,45 95,69c35,23 100,72 145,108c44,37 119,88 166,115c178,103 313,214 426,349c42,50 81,101 86,114c6,13 14,24 18,24c4,0 10,-71 13,-157zm129,-196c15,-12 47,-58 70,-102c56,-103 93,-127 237,-155c108,-20 185,-50 195,-75c6,-16 7,-16 -134,-100c-149,-90 -252,-175 -435,-359c-179,-180 -263,-288 -370,-473l-59,-102l-56,6c-70,7 -113,-11 -169,-72c-53,-57 -80,-146 -88,-287l-6,-108l-56,-42c-80,-60 -362,-339 -433,-430c-33,-42 -68,-80 -76,-83c-52,-20 -35,123 31,255c18,36 74,131 124,211c163,259 213,391 184,497c-16,62 -33,87 -81,117c-31,19 -40,32 -40,53c0,15 -16,52 -35,82c-40,62 -45,108 -15,135c11,10 54,26 96,36c77,18 124,41 124,60c0,5 -7,23 -15,39c-27,52 -10,68 169,158c299,149 606,377 759,563c39,48 45,67 26,86c-8,8 -8,17 0,31c6,11 8,28 5,36c-7,18 1,46 13,46c4,-1 20,-11 35,-23zm-2262,-71c0,-8 -26,-59 -58,-113c-32,-54 -77,-134 -101,-178c-50,-92 -71,-120 -71,-91c0,29 153,319 203,384c13,16 27,15 27,-2zm1104,-258l-22,-10l19,-61c22,-74 7,-63 -20,15c-18,52 -18,57 -3,61c32,9 47,6 26,-5zm2193,-62c17,-17 15,-18 -67,-11c-100,8 -122,13 -114,27c4,6 38,9 85,6c60,-2 83,-7 96,-22zm-2337,-1101c19,-23 6,-104 -26,-167c-15,-29 -50,-93 -79,-143c-29,-49 -75,-132 -101,-184c-127,-245 -217,-195 -118,66c56,150 168,341 237,406c43,40 67,46 87,22z" id="svg_2"/>
   <path d="m6286.3,-2947.19c-6,-6 -26,-14 -44,-18c-38,-8 -49,-27 -19,-36c25,-8 84,24 88,48c4,19 -9,22 -25,6z" id="svg_3"/>
   <path d="m4496.3,-3805.19c-44,-21 -103,-90 -103,-123c0,-27 43,-20 48,7c2,11 11,29 21,39c19,22 88,55 115,56c15,0 17,-5 11,-27c-12,-45 -8,-67 20,-91c31,-26 69,-22 99,12c13,14 20,17 23,9c3,-7 11,-13 19,-13c23,0 16,46 -13,81c-55,65 -158,87 -240,50z" id="svg_4"/>
   <path d="m4414.3,-3969.19c-31,-11 -33,-15 -37,-64c-2,-30 0,-55 6,-58c16,-10 63,41 54,57c-4,7 -3,10 1,5c5,-4 18,-1 30,7c11,7 45,14 75,15c80,2 110,5 110,13c0,8 -35,15 -115,23c-33,4 -67,8 -75,10c-8,2 -30,-2 -49,-8zm182,-24c-7,-2 -19,-2 -25,0c-7,3 -2,5 12,5c14,0 19,-2 13,-5zm-178,-23c3,-6 -1,-7 -9,-4c-18,7 -21,14 -7,14c6,0 13,-4 16,-10z" id="svg_5"/>
   <path d="m5368.3,-3787.19c-43,-7 -56,-14 -92,-56c-41,-45 -54,-73 -34,-73c5,0 15,8 22,17c24,28 91,73 110,73c16,0 17,-4 9,-26c-21,-55 17,-109 76,-107c39,1 62,17 75,51l9,24l22,-28l22,-28l8,35c5,27 2,39 -15,57c-46,50 -127,73 -212,61z" id="svg_6"/>
   <path d="m5308.3,-3996.19c-4,-6 9,-10 32,-11c85,-2 150,-8 176,-18c36,-14 37,-14 37,3c0,8 -14,19 -31,25c-40,14 -206,15 -214,1z" id="svg_7"/>
   <path d="m4089.3,-3858.19c5,-7 2,-9 -8,-6c-8,4 -15,1 -16,-5c-1,-7 -5,-31 -10,-54c-5,-24 -6,-43 -2,-43c10,0 20,26 20,55c0,12 7,28 15,35c17,14 20,30 4,30c-5,0 -7,-5 -3,-12z" id="svg_8"/>
   <path d="m6278.3,-4053.19c-52,-28 -94,-64 -117,-100c-19,-32 -20,-37 -6,-47c9,-7 13,-18 8,-30c-4,-14 -9,-16 -14,-8c-4,7 -19,12 -33,12c-22,0 -24,-3 -18,-22c20,-65 18,-73 -29,-118c-52,-49 -54,-58 -27,-91l20,-24l40,22c21,12 60,27 87,33c26,6 59,19 73,29c55,40 109,183 98,263c-3,23 -2,37 3,32c5,-5 10,-31 12,-59c4,-63 27,-68 46,-10c15,45 9,90 -15,117c-20,23 -86,23 -128,1z" id="svg_9"/>
   <path d="m5113.3,-4272.19c0,-3 9,-17 20,-31c11,-14 20,-32 20,-40c0,-8 5,-11 10,-8c13,8 3,43 -18,68c-15,17 -32,23 -32,11z" id="svg_10"/>
   <path d="m4726.3,-4328.19c-5,-7 -26,-48 -47,-91c-30,-62 -45,-80 -70,-91c-34,-14 -63,-64 -52,-91c8,-23 33,-18 40,8c7,29 43,77 58,77c7,0 6,-5 -1,-14c-8,-9 -8,-16 -2,-20c5,-4 12,3 16,14c3,11 11,20 16,20c12,0 11,-18 -2,-22c-5,-2 -12,-12 -14,-23c-2,-11 -4,-22 -4,-25c-1,-3 -6,2 -12,10c-7,10 -9,11 -7,2c2,-8 7,-13 11,-13c4,1 14,1 22,1c8,0 14,6 13,13c-4,16 24,16 30,-1c2,-6 -6,-16 -19,-20c-17,-7 -19,-10 -7,-14c8,-3 52,10 97,28c46,19 91,34 100,33c46,-4 59,2 75,36c24,49 24,48 -8,56c-24,7 -27,5 -23,-11c8,-33 -16,-53 -64,-53c-25,-1 -43,3 -42,9c2,13 -106,59 -129,56c-10,-2 -18,2 -18,7c0,6 7,11 16,11c8,0 12,5 9,10c-3,6 -2,10 4,10c5,0 14,-6 18,-12c25,-40 202,-96 188,-60c-3,7 -5,17 -5,21c0,4 -20,22 -45,39c-26,18 -43,37 -40,42c3,5 -1,7 -9,4c-8,-3 -19,3 -25,14c-13,25 -40,52 -50,52c-5,0 -13,-6 -18,-12zm2,-148c-3,-5 -10,-10 -16,-10c-5,0 -9,5 -9,10c0,6 7,10 16,10c8,0 12,-4 9,-10zm231,-37c-11,-11 -17,4 -9,23c7,18 8,18 11,1c2,-10 1,-21 -2,-24zm-157,1c10,-9 -65,-3 -78,5c-10,6 1,8 30,4c24,-3 46,-7 48,-9z" id="svg_11"/>
   <path d="m4808.3,-4338.19c17,-6 34,-17 38,-24c4,-8 13,-14 18,-14c6,0 7,5 3,12c-5,8 6,10 42,5c27,-3 56,-7 63,-9c7,-2 15,2 18,9c5,14 -94,23 -119,11c-9,-4 -18,-4 -20,1c-2,5 -19,11 -38,15l-35,6l30,-12z" id="svg_12"/>
   <path d="m5003.3,-4366.19c-6,-20 -5,-48 2,-44c4,3 8,-2 8,-11c0,-12 5,-15 18,-10c9,4 33,12 52,17c50,14 58,26 26,38c-40,15 -76,12 -83,-7c-6,-15 -7,-15 -14,3c-4,10 -8,17 -9,14z" id="svg_13"/>
   <path d="m4909.3,-4409.19c3,-10 9,-15 12,-12c3,3 0,11 -7,18c-10,9 -11,8 -5,-6z" id="svg_14"/>
   <path d="m4948.3,-4426.19c-3,-5 -1,-10 4,-10c6,0 11,5 11,10c0,6 -2,10 -4,10c-3,0 -8,-4 -11,-10z" id="svg_15"/>
   <path d="m5329.3,-4493.19c-3,-4 7,-21 24,-38c19,-20 31,-43 33,-65c4,-52 31,-47 35,6c2,34 -2,46 -27,72c-28,31 -50,39 -65,25z" id="svg_16"/>
   <path d="m4643.3,-4624.19c0,-30 54,-74 102,-82c23,-5 65,-5 93,-1c27,5 106,6 175,3c211,-10 262,-8 298,11c17,10 32,25 32,34c0,13 -6,14 -37,8c-46,-10 -115,-10 -293,-1c-74,5 -171,7 -216,6c-67,-1 -84,2 -106,19c-32,26 -48,27 -48,3z" id="svg_17"/>
   <path d="m4863.3,-4728.19c0,-28 -17,-41 -36,-28c-16,10 -16,11 -1,6c11,-3 17,0 17,9c0,18 3,17 -37,6c-17,-5 -34,-6 -38,-3c-18,18 -32,7 -33,-26c-2,-38 59,-167 84,-176c7,-3 44,-3 81,1c67,6 69,7 126,65c31,33 57,61 57,63c0,2 -9,1 -21,-2c-11,-3 -30,-1 -42,5c-26,13 -147,22 -147,10c0,-4 -7,-5 -15,-2c-8,4 -15,10 -15,15c0,4 7,5 17,2c11,-4 14,-3 9,5c-4,7 -1,12 7,12c10,0 13,7 10,20c-6,24 -23,37 -23,18zm-50,-58c0,-5 -4,-10 -10,-10c-5,0 -10,5 -10,10c0,6 5,10 10,10c6,0 10,-4 10,-10zm190,-60c0,-10 -117,-7 -127,4c-4,3 24,6 60,6c37,0 67,-4 67,-10z" id="svg_18"/>
   <path d="m4153.3,-4028.19c0,-54 13,-79 32,-60c11,11 10,16 -5,27c-10,7 -14,16 -9,19c11,7 4,43 -9,52c-5,3 -9,-14 -9,-38z" id="svg_19"/>
   <path d="m4998.3,-6236.19c-3,-5 9,-16 28,-24c56,-23 126,-110 196,-243c40,-74 66,-102 83,-85c25,25 -152,303 -217,339c-42,24 -80,29 -90,13z" id="svg_20"/>
   <path d="m4968.3,-6506.19c-16,-4 -47,-8 -67,-9c-33,-1 -57,-15 -45,-27c4,-5 140,13 170,22c9,3 17,10 17,15c0,10 -31,10 -75,-1z" id="svg_21"/>
   <path d="m7690.3,-5756.19c-166,-56 -252,-112 -397,-260c-116,-118 -192,-229 -247,-363c-41,-102 -46,-210 -13,-265c37,-61 100,-72 263,-46c26,4 37,3 37,-6c0,-7 -102,-114 -227,-239c-351,-349 -538,-603 -834,-1136c-103,-187 -152,-328 -153,-445c-1,-67 3,-92 17,-113c25,-38 75,-67 117,-67c85,0 227,101 315,224c49,70 157,250 287,481c162,287 407,693 526,874c115,173 164,221 290,284c103,51 107,52 192,52c75,-1 92,-4 133,-28c87,-52 134,-181 122,-337c-31,-412 -272,-921 -704,-1490c-261,-343 -473,-539 -612,-564c-31,-5 -42,-2 -68,19c-42,36 -48,78 -22,162c41,136 148,276 249,327c84,43 57,82 -36,52c-173,-58 -346,-327 -311,-483c35,-157 143,-199 341,-133c102,34 150,60 260,142c297,221 716,771 939,1233c164,342 234,596 246,895c10,236 -25,388 -107,467c-94,92 -298,55 -491,-87c-67,-51 -96,-62 -85,-35c3,8 33,55 66,105c206,307 386,665 365,730c-11,34 -40,43 -81,24c-35,-17 -36,-17 -57,8c-34,40 -59,48 -149,48c-65,0 -102,-7 -171,-30zm255,-77c26,-27 27,-26 -146,-253c-78,-102 -167,-220 -199,-262c-110,-145 -230,-238 -332,-257c-91,-17 -107,40 -55,202c50,156 183,336 332,450c76,57 172,111 242,133c56,19 132,12 158,-13zm-979,-1404c-10,-17 -49,-67 -86,-112c-38,-45 -104,-133 -148,-195c-132,-186 -319,-411 -319,-384c0,6 5,12 10,12c6,0 10,11 10,23c0,13 26,61 58,106c31,44 83,119 116,166c68,99 307,387 338,409c31,22 41,9 21,-25z" id="svg_22"/>
   <path d="m2731.3,-8006.19c-205,-35 -430,-121 -603,-232c-68,-44 -155,-120 -155,-137c0,-5 -18,-20 -40,-35c-22,-14 -40,-33 -40,-41c0,-27 28,-16 57,21c33,44 222,170 353,236c106,53 261,106 390,134c65,15 127,19 260,19c158,0 182,-2 243,-24c114,-39 165,-103 138,-172c-17,-47 -79,-97 -147,-119c-56,-19 -64,-25 -64,-46c0,-19 8,-28 32,-38c40,-17 100,-2 156,40c113,83 143,196 76,282c-90,113 -368,161 -656,112z" id="svg_23"/>
   <path d="m2631.3,-8362.19c-3,-3 -2,-22 3,-42c14,-61 11,-80 -17,-99c-21,-13 -30,-14 -45,-5c-29,19 -37,14 -10,-7c23,-17 23,-21 12,-65c-10,-42 -9,-49 11,-81c15,-22 31,-35 44,-35c32,0 34,-18 13,-106c-20,-86 -25,-140 -10,-114c5,8 14,51 20,95c10,73 23,106 36,94c2,-3 9,-38 15,-79c6,-41 13,-76 15,-79c14,-14 14,14 0,73c-20,88 -19,103 6,117c18,9 25,7 46,-16c14,-14 28,-24 31,-21c3,4 -5,17 -18,31l-23,24l20,33c27,48 14,117 -29,142c-24,15 -29,23 -23,43c16,64 14,86 -2,38c-15,-42 -22,-50 -43,-50c-22,0 -25,5 -33,54c-8,58 -10,64 -19,55zm113,-170c28,-26 25,-89 -6,-119c-45,-46 -127,-26 -138,32c-6,34 14,87 40,102c24,15 80,6 104,-15z" id="svg_24"/>
   <path d="m2466.3,-8613.19c9,-2 23,-2 30,0c6,3 -1,5 -18,5c-16,0 -22,-2 -12,-5z" id="svg_25"/>
   <path d="m2851.3,-8613.19c12,-2 32,-2 45,0c12,2 2,4 -23,4c-25,0 -35,-2 -22,-4z" id="svg_26"/>
   <path d="m2848.3,-8686.19c11,-5 27,-9 35,-9c9,0 8,4 -5,9c-11,5 -27,9 -35,9c-9,0 -8,-4 5,-9z" id="svg_27"/>
   <path d="m2566.3,-8719.19c-25,-11 -31,-27 -9,-27c14,0 42,28 35,34c-2,2 -14,-1 -26,-7z" id="svg_28"/>
   <path d="m2963.3,-8720.19c0,-2 9,-6 20,-9c11,-3 18,-1 14,4c-5,9 -34,13 -34,5z" id="svg_29"/>
  </g>
 </g>
</svg>